<svg width="50" height="50" viewBox="0 0 50 50" fill="none" xmlns="http://www.w3.org/2000/svg">
<path d="M44.1667 2H5.83333C4.81667 2 3.84165 2.40387 3.12276 3.12276C2.40387 3.84165 2 4.81667 2 5.83333V44.1667C2 45.1833 2.40387 46.1584 3.12276 46.8772C3.84165 47.5961 4.81667 48 5.83333 48H44.1667C45.1833 48 46.1584 47.5961 46.8772 46.8772C47.5961 46.1584 48 45.1833 48 44.1667V5.83333C48 4.81667 47.5961 3.84165 46.8772 3.12276C46.1584 2.40387 45.1833 2 44.1667 2Z" stroke="white" stroke-width="4"/>
<path d="M35.2222 14.7778H14.7778V35.2223H35.2222V14.7778Z" stroke="white" stroke-width="4" stroke-linecap="round" stroke-linejoin="round"/>
</svg>
