<svg width="51" height="50" viewBox="0 0 51 50" fill="none" xmlns="http://www.w3.org/2000/svg">
<path d="M44.6667 2H6.33333C5.31667 2 4.34165 2.40387 3.62276 3.12276C2.90387 3.84165 2.5 4.81667 2.5 5.83333V44.1667C2.5 45.1833 2.90387 46.1584 3.62276 46.8772C4.34165 47.5961 5.31667 48 6.33333 48H44.6667C45.6833 48 46.6584 47.5961 47.3772 46.8772C48.0961 46.1584 48.5 45.1833 48.5 44.1667V5.83333C48.5 4.81667 48.0961 3.84165 47.3772 3.12276C46.6584 2.40387 45.6833 2 44.6667 2Z" stroke="white" stroke-width="4"/>
<path d="M35.7222 14.7778H15.2778V35.2223H35.7222V14.7778Z" stroke="white" stroke-width="4" stroke-linecap="round" stroke-linejoin="round"/>
</svg>
