<svg width="343" height="90" viewBox="0 0 343 90" fill="none" xmlns="http://www.w3.org/2000/svg">
<g filter="url(#filter0_d_2_2)">
<path d="M5 16C5 7.71573 11.7157 1 20 1H323C331.284 1 338 7.71573 338 16V66C338 74.2843 331.284 81 323 81H20C11.7157 81 5 74.2843 5 66V16Z" fill="#ABABAB" fill-opacity="0.45" shape-rendering="crispEdges"/>
<path d="M5 16C5 7.71573 11.7157 1 20 1H323C331.284 1 338 7.71573 338 16V66C338 74.2843 331.284 81 323 81H20C11.7157 81 5 74.2843 5 66V16Z" stroke="black" shape-rendering="crispEdges"/>
</g>
<defs>
<filter id="filter0_d_2_2" x="0.5" y="0.5" width="342" height="89" filterUnits="userSpaceOnUse" color-interpolation-filters="sRGB">
<feFlood flood-opacity="0" result="BackgroundImageFix"/>
<feColorMatrix in="SourceAlpha" type="matrix" values="0 0 0 0 0 0 0 0 0 0 0 0 0 0 0 0 0 0 127 0" result="hardAlpha"/>
<feOffset dy="4"/>
<feGaussianBlur stdDeviation="2"/>
<feComposite in2="hardAlpha" operator="out"/>
<feColorMatrix type="matrix" values="0 0 0 0 0 0 0 0 0 0 0 0 0 0 0 0 0 0 0.25 0"/>
<feBlend mode="normal" in2="BackgroundImageFix" result="effect1_dropShadow_2_2"/>
<feBlend mode="normal" in="SourceGraphic" in2="effect1_dropShadow_2_2" result="shape"/>
</filter>
</defs>
</svg>
