<svg width="342" height="90" viewBox="0 0 342 90" fill="none" xmlns="http://www.w3.org/2000/svg">
<g filter="url(#filter0_d_40_797)">
<path d="M4.5 16C4.5 7.71573 11.2157 1 19.5 1H322.5C330.784 1 337.5 7.71573 337.5 16V66C337.5 74.2843 330.784 81 322.5 81H19.5C11.2157 81 4.5 74.2843 4.5 66V16Z" fill="#50FF96"/>
<path d="M4.5 16C4.5 7.71573 11.2157 1 19.5 1H322.5C330.784 1 337.5 7.71573 337.5 16V66C337.5 74.2843 330.784 81 322.5 81H19.5C11.2157 81 4.5 74.2843 4.5 66V16Z" stroke="black"/>
</g>
<defs>
<filter id="filter0_d_40_797" x="0" y="0.5" width="342" height="89" filterUnits="userSpaceOnUse" color-interpolation-filters="sRGB">
<feFlood flood-opacity="0" result="BackgroundImageFix"/>
<feColorMatrix in="SourceAlpha" type="matrix" values="0 0 0 0 0 0 0 0 0 0 0 0 0 0 0 0 0 0 127 0" result="hardAlpha"/>
<feOffset dy="4"/>
<feGaussianBlur stdDeviation="2"/>
<feComposite in2="hardAlpha" operator="out"/>
<feColorMatrix type="matrix" values="0 0 0 0 0 0 0 0 0 0 0 0 0 0 0 0 0 0 0.25 0"/>
<feBlend mode="normal" in2="BackgroundImageFix" result="effect1_dropShadow_40_797"/>
<feBlend mode="normal" in="SourceGraphic" in2="effect1_dropShadow_40_797" result="shape"/>
</filter>
</defs>
</svg>
